<?xml version="1.0" standalone="no"?>
<!DOCTYPE svg PUBLIC "-//W3C//DTD SVG 20010904//EN"
 "http://www.w3.org/TR/2001/REC-SVG-20010904/DTD/svg10.dtd">
<svg version="1.0" xmlns="http://www.w3.org/2000/svg"
 width="501.000000pt" height="501.000000pt" viewBox="0 0 501.000000 501.000000"
 preserveAspectRatio="xMidYMid meet">
<metadata>
Created by potrace 1.14, written by Peter Selinger 2001-2017
</metadata>
<g transform="translate(0.000000,501.000000) scale(0.100000,-0.100000)"
fill="#000000" stroke="none">
<path d="M2307 3379 c-11 -6 -25 -26 -33 -44 -43 -104 71 -190 156 -118 30 25
32 30 27 77 -3 38 -11 55 -31 73 -29 25 -87 31 -119 12z m99 -17 c13 -8 34
-46 34 -60 0 -5 -25 -12 -56 -15 -64 -7 -72 -11 -58 -35 15 -23 48 -26 68 -6
14 13 20 14 29 5 17 -17 -17 -41 -59 -41 -69 0 -107 78 -64 133 16 21 30 27
58 27 20 0 42 -4 48 -8z m-21 -102 c-3 -5 -12 -10 -20 -10 -8 0 -17 5 -20 10
-4 6 5 10 20 10 15 0 24 -4 20 -10z"/>
<path d="M2333 3343 c-7 -2 -13 -14 -13 -25 0 -16 5 -19 23 -14 12 3 32 6 45
6 20 0 21 3 12 20 -10 19 -39 25 -67 13z m40 -20 c-7 -2 -19 -2 -25 0 -7 3 -2
5 12 5 14 0 19 -2 13 -5z"/>
<path d="M2593 3375 c-35 -25 -48 -83 -29 -128 16 -39 46 -57 95 -57 32 0 81
34 81 56 0 19 -49 30 -72 15 -25 -16 -38 -6 -38 30 0 34 25 49 43 26 8 -10 22
-13 43 -10 25 4 31 9 27 24 -14 51 -103 77 -150 44z m108 -15 c23 -13 26 -40
4 -40 -8 0 -15 4 -15 10 0 16 -49 23 -65 10 -9 -7 -15 -29 -15 -51 0 -32 5
-41 25 -51 19 -9 28 -9 37 0 14 14 48 16 48 2 0 -15 -35 -30 -70 -30 -67 0
-102 79 -59 134 22 28 73 35 110 16z"/>
<path d="M2200 3371 c-8 -6 -18 -7 -22 -5 -5 3 -22 2 -39 -1 -31 -7 -31 -7
-25 -59 18 -141 14 -132 52 -128 l34 4 -3 61 c-2 61 -2 61 28 67 25 4 31 10
33 38 3 28 0 32 -20 32 -13 0 -30 -4 -38 -9z m40 -26 c0 -8 -8 -15 -18 -15
-35 0 -54 -34 -47 -83 6 -37 4 -45 -11 -51 -9 -3 -18 -5 -19 -4 -2 2 -6 38
-10 81 -6 64 -4 77 8 77 8 0 18 -8 21 -17 6 -14 8 -14 22 5 17 25 54 30 54 7z"/>
<path d="M2776 3339 c-54 -64 -22 -155 59 -165 47 -6 84 11 102 46 15 29 17
18 4 -27 -8 -27 -6 -32 12 -37 47 -12 55 -7 62 37 8 47 20 67 43 67 14 0 13
-37 -4 -106 -5 -18 0 -22 27 -28 39 -8 42 -4 58 79 12 58 11 68 -3 90 -9 14
-24 26 -34 26 -27 2 -65 8 -98 15 -30 6 -31 4 -41 -38 -9 -35 -11 -38 -12 -15
-1 17 -13 40 -30 58 -24 23 -38 29 -74 29 -38 0 -49 -5 -71 -31z m142 -16 c21
-28 15 -81 -13 -108 -48 -49 -135 -17 -135 50 0 49 9 66 43 80 35 15 85 4 105
-22z m102 -18 c0 -12 4 -13 19 -5 28 14 46 13 71 -8 22 -18 23 -21 10 -85 -12
-68 -16 -73 -37 -59 -8 5 -9 19 -1 54 13 56 6 78 -25 78 -31 0 -42 -14 -56
-67 -11 -42 -41 -61 -41 -27 0 14 16 90 26 122 5 17 34 15 34 -3z"/>
<path d="M2816 3308 c-23 -33 -20 -65 8 -83 32 -21 62 -6 71 34 13 62 -45 98
-79 49z m62 -29 c3 -30 -18 -52 -42 -43 -17 6 -21 30 -10 59 10 26 48 15 52
-16z"/>
<path d="M1792 3343 c-18 -4 -21 -9 -16 -29 5 -18 2 -24 -10 -24 -18 0 -20 -9
-6 -44 6 -17 15 -24 24 -20 11 4 18 -6 26 -38 7 -23 17 -49 22 -55 14 -17 70
-16 94 1 11 8 30 12 45 9 15 -3 37 1 50 7 13 7 38 14 56 15 18 1 35 4 37 6 2
2 -2 33 -10 69 -7 36 -14 75 -14 88 0 18 -5 22 -34 22 -19 0 -37 -4 -40 -8 -2
-4 0 -29 6 -56 8 -41 7 -51 -6 -65 -22 -21 -32 -5 -41 62 l-7 49 -45 -7 c-25
-4 -51 -9 -58 -11 -7 -3 -15 4 -18 15 -5 21 -11 22 -55 14z m41 -34 c4 -16 11
-19 26 -14 15 5 21 2 21 -9 0 -9 -7 -16 -15 -16 -30 0 -5 -97 26 -102 34 -5
26 -23 -12 -26 -37 -3 -37 -3 -49 48 -10 41 -18 53 -39 61 -23 9 -24 11 -8 20
9 6 17 21 17 34 0 31 25 33 33 4z m246 -36 c15 -75 14 -93 -4 -93 -8 0 -15 5
-15 10 0 6 -13 1 -29 -11 -56 -41 -92 -14 -106 84 -6 39 -5 47 8 47 17 0 22
-12 33 -72 7 -45 36 -59 65 -32 20 18 21 46 3 107 -4 12 0 17 14 17 15 0 22
-11 31 -57z m-165 -75 c-11 -17 -32 -7 -38 18 -5 19 -2 30 11 39 16 12 19 10
25 -18 3 -17 4 -35 2 -39z"/>
<path d="M3219 3319 c-7 -13 -17 -19 -29 -16 -13 3 -20 -2 -24 -17 -9 -34 -7
-46 9 -46 8 0 15 -4 15 -9 0 -5 -7 -28 -15 -51 -21 -59 -19 -66 18 -77 l32 -9
16 56 c13 45 20 55 38 55 18 0 27 12 45 57 l23 56 -24 11 c-41 19 -91 14 -104
-10z m75 1 c34 -13 33 -29 -1 -27 -34 2 -45 -28 -13 -38 26 -8 16 -27 -13 -23
-18 3 -23 -6 -36 -54 -11 -44 -19 -58 -33 -58 -22 0 -22 -1 -2 67 15 52 15 57
0 65 -23 13 -20 31 5 25 15 -4 22 1 29 18 5 12 15 25 22 28 7 3 14 6 15 6 1 1
13 -3 27 -9z"/>
<path d="M1688 3273 c-22 -5 -22 -18 -3 -73 11 -32 12 -46 4 -56 -19 -23 -27
-16 -44 39 -10 28 -20 55 -24 59 -3 4 -20 1 -38 -7 l-31 -13 24 -69 c14 -37
32 -74 41 -80 20 -15 69 -17 78 -3 3 6 26 15 51 21 24 6 44 14 44 17 0 3 -12
43 -27 89 -27 84 -31 88 -75 76z m58 -84 c20 -63 20 -71 6 -77 -9 -3 -17 -1
-19 5 -2 6 -15 0 -28 -13 -26 -26 -67 -32 -82 -11 -11 12 -43 104 -43 120 0 4
7 7 17 5 9 -2 23 -23 33 -53 20 -59 49 -71 74 -32 15 21 15 28 1 66 -8 24 -12
47 -9 52 14 23 31 3 50 -62z"/>
<path d="M1463 3250 c-25 -15 -33 -27 -33 -49 0 -17 -7 -34 -16 -39 -22 -12 1
-62 29 -59 15 2 24 -10 40 -51 19 -49 22 -53 46 -47 43 11 45 21 21 76 -21 50
-21 53 -4 66 15 11 16 17 4 55 -7 24 -14 49 -16 56 -5 18 -34 15 -71 -8z m57
-6 c0 -3 -10 -14 -22 -23 -27 -22 -16 -45 18 -37 17 5 24 2 24 -8 0 -7 -9 -16
-20 -19 -19 -5 -19 -6 4 -63 21 -51 22 -60 9 -67 -18 -11 -15 -14 -42 55 -20
50 -26 56 -41 48 -13 -7 -19 -6 -23 4 -3 8 2 16 12 19 14 3 17 12 14 34 -4 24
0 34 18 47 23 16 49 21 49 10z"/>
<path d="M3337 3229 c-25 -15 -47 -63 -47 -103 0 -64 89 -109 151 -75 12 6 18
17 15 25 -3 8 -2 13 3 10 18 -12 29 71 15 109 -14 36 -97 57 -137 34z m101
-26 c25 -21 36 -62 23 -82 -7 -11 -18 -10 -65 8 l-56 21 0 -24 c0 -31 24 -50
54 -44 36 7 54 -7 27 -22 -28 -14 -87 3 -101 30 -16 30 -11 75 11 104 25 31
76 35 107 9z m-48 -93 c12 -8 11 -10 -7 -10 -13 0 -23 5 -23 10 0 13 11 13 30
0z"/>
<path d="M3360 3185 c-10 -13 -7 -17 23 -30 20 -8 41 -15 47 -15 16 0 12 25
-8 43 -23 21 -46 22 -62 2z m54 -14 c4 -5 -3 -7 -14 -4 -23 6 -26 13 -6 13 8
0 17 -4 20 -9z"/>
<path d="M3489 3103 c-19 -43 -34 -82 -34 -86 0 -5 14 -15 31 -22 l32 -13 17
43 c21 57 37 70 65 55 18 -10 26 -8 46 11 15 14 21 26 15 32 -9 9 -120 57
-132 57 -3 0 -21 -35 -40 -77z m65 51 c8 -3 12 -12 9 -21 -5 -12 -1 -14 15 -8
30 9 62 -3 56 -20 -4 -10 -12 -11 -27 -6 -34 13 -61 -3 -82 -48 -18 -41 -29
-49 -40 -32 -4 8 43 141 51 141 1 0 9 -3 18 -6z"/>
<path d="M1233 3148 c-13 -6 -23 -15 -23 -19 0 -8 97 -209 104 -216 2 -3 18 3
35 11 l30 16 -40 83 c-22 45 -45 81 -50 79 -6 -1 -8 2 -4 8 9 15 -4 50 -18 49
-7 0 -22 -5 -34 -11z m37 -18 c0 -13 -28 -25 -38 -16 -3 4 0 11 8 16 20 13 30
12 30 0z m52 -115 c28 -56 31 -67 18 -75 -12 -7 -22 4 -48 56 -31 61 -34 84
-11 84 5 0 24 -29 41 -65z"/>
<path d="M3673 3090 c-29 -12 -63 -67 -63 -102 0 -16 12 -41 29 -60 23 -25 36
-32 67 -32 22 0 48 4 59 9 18 8 19 7 5 -9 -13 -16 -12 -20 9 -37 34 -28 44
-24 71 26 18 33 31 45 47 45 29 0 29 -3 -7 -66 l-30 -54 31 -16 c36 -18 37
-18 78 62 37 73 32 103 -21 124 -18 8 -44 22 -57 32 -35 26 -46 23 -66 -22
-10 -23 -23 -44 -28 -47 -5 -3 -4 4 2 15 25 46 5 103 -44 127 -37 17 -50 18
-82 5z m100 -41 c18 -23 23 -74 7 -84 -5 -3 -32 6 -59 20 -61 31 -61 31 -61 2
0 -31 18 -47 51 -47 32 0 48 -17 25 -26 -23 -9 -64 4 -86 26 -28 28 -25 72 7
110 23 28 31 31 62 26 20 -3 44 -15 54 -27z m111 -70 c-3 -5 8 -9 24 -9 17 0
40 -9 53 -19 l24 -20 -33 -65 c-23 -45 -38 -63 -48 -59 -19 7 -18 13 12 67 21
38 24 49 14 61 -25 30 -59 18 -88 -30 -15 -24 -31 -45 -35 -45 -22 -1 -15 36
18 90 30 49 40 59 51 49 8 -6 11 -15 8 -20z m-174 -9 c12 -8 11 -10 -7 -10
-13 0 -23 5 -23 10 0 13 11 13 30 0z"/>
<path d="M3685 3039 c-4 -6 -5 -12 -4 -13 7 -6 68 -36 74 -36 10 0 5 36 -7 48
-15 15 -55 16 -63 1z m50 -17 c-3 -3 -11 0 -18 7 -9 10 -8 11 6 5 10 -3 15 -9
12 -12z"/>
<path d="M1153 3047 c-65 -35 -83 -55 -83 -97 0 -41 28 -85 60 -95 15 -5 19
-12 14 -31 -6 -22 -3 -24 32 -24 71 0 132 55 120 109 -8 40 -76 161 -89 160
-7 0 -31 -10 -54 -22z m92 -67 c41 -82 43 -99 12 -128 -24 -23 -84 -48 -94
-39 -9 10 8 27 26 27 11 0 29 8 41 18 18 15 22 25 16 46 l-7 27 -28 -30 c-35
-38 -69 -40 -101 -6 -44 47 -18 125 42 125 11 0 26 7 34 15 9 8 17 15 20 15 2
0 20 -31 39 -70z"/>
<path d="M1132 2988 c-29 -29 0 -92 41 -86 11 2 26 12 33 23 28 43 -38 99 -74
63z m57 -26 c12 -23 -1 -45 -25 -40 -12 2 -20 13 -22 31 -3 22 1 27 17 27 11
0 25 -8 30 -18z"/>
<path d="M1000 2953 c-14 -9 -27 -18 -28 -19 -2 -1 8 -22 22 -47 29 -50 33
-72 11 -80 -9 -4 -24 11 -45 48 l-31 54 -29 -17 c-17 -9 -30 -20 -30 -25 0 -4
12 -26 27 -50 60 -94 88 -107 141 -62 17 14 33 25 36 25 4 0 17 7 31 16 l24
15 -46 72 c-59 93 -55 89 -83 70z m63 -75 c27 -44 35 -63 26 -69 -7 -4 -18 -5
-26 -2 -7 3 -13 0 -13 -6 0 -20 -39 -51 -64 -51 -33 0 -104 110 -80 123 9 5
16 7 18 5 58 -92 75 -105 104 -76 18 18 14 44 -13 87 -23 37 -22 46 5 50 3 0
22 -27 43 -61z"/>
<path d="M3996 2872 c-14 -16 -29 -45 -33 -65 -5 -32 -1 -41 30 -72 26 -26 43
-35 69 -35 19 0 38 4 44 9 5 6 9 -5 10 -31 0 -45 32 -82 80 -94 31 -8 78 11
68 28 -4 6 -3 8 4 4 17 -10 42 35 42 77 0 64 -70 114 -126 88 -23 -10 -24 -9
-24 28 0 82 -106 123 -164 63z m122 -8 c12 -8 22 -18 22 -23 0 -5 3 -16 6 -25
4 -11 1 -16 -10 -16 -9 0 -21 11 -25 24 -18 46 -62 43 -87 -5 -16 -31 -6 -68
19 -70 7 -1 17 -2 22 -4 6 -1 16 -3 23 -3 28 -4 9 -22 -23 -22 -66 0 -103 61
-71 119 27 49 71 58 124 25z m-29 -37 c6 -8 8 -17 5 -20 -4 -3 6 -12 22 -19
16 -6 31 -13 33 -14 1 -2 -3 -12 -11 -23 l-15 -21 -19 21 c-10 11 -26 18 -36
16 -29 -8 -43 19 -24 48 19 28 29 31 45 12z m177 -80 c26 -23 36 -70 19 -97
-10 -16 -19 -12 -67 25 -48 36 -58 36 -58 0 0 -27 16 -42 49 -47 34 -4 40 -28
8 -28 -14 0 -39 12 -56 26 -41 34 -42 75 -2 115 36 35 70 37 107 6z m-60 -94
c-7 -7 -26 7 -26 19 0 6 6 6 15 -2 9 -7 13 -15 11 -17z"/>
<path d="M4195 2731 c-3 -5 9 -21 27 -35 27 -21 34 -23 41 -11 12 22 -10 55
-38 55 -13 0 -26 -4 -30 -9z"/>
<path d="M770 2800 c-15 -16 -32 -30 -37 -30 -6 0 -102 -67 -121 -85 -2 -2 20
-37 49 -79 l52 -75 29 17 c15 9 28 20 28 24 0 4 -14 27 -31 52 -28 39 -32 66
-10 66 4 0 22 -20 40 -45 18 -25 36 -45 41 -45 4 0 18 8 31 19 l23 18 -32 44
c-18 23 -32 49 -32 55 0 31 22 21 56 -25 l38 -50 28 17 c15 9 28 19 28 22 0 3
-20 34 -45 68 -39 53 -50 62 -76 62 -22 0 -40 -9 -59 -30z m119 -42 c35 -46
38 -54 24 -62 -13 -7 -21 -3 -32 15 -35 52 -56 70 -74 64 -32 -13 -32 -51 2
-94 25 -32 28 -41 17 -50 -10 -9 -21 -2 -50 34 -41 49 -60 56 -76 25 -12 -22
-4 -44 32 -89 17 -22 17 -26 3 -34 -9 -5 -17 -7 -19 -5 -1 1 -21 28 -44 60
-34 46 -39 58 -28 68 11 8 16 8 21 -1 5 -7 13 0 21 20 9 22 22 33 42 37 17 3
39 19 51 35 33 45 63 39 110 -23z"/>
<path d="M3340 2672 c-23 -8 -42 -31 -37 -45 3 -9 -10 -11 -51 -8 l-55 3 7
-32 c3 -18 6 -68 6 -111 l0 -78 40 1 c30 0 40 4 40 17 0 12 2 13 8 4 9 -14 78
-13 99 0 6 4 14 3 18 -3 10 -17 44 -11 55 9 6 11 6 22 1 25 -5 3 -7 35 -5 71
3 45 1 65 -7 65 -7 0 -9 9 -5 25 10 41 -44 81 -63 47 -9 -16 -11 -16 -23 -1
-7 9 -20 14 -28 11z m-23 -188 c-3 -3 -12 -4 -19 -1 -8 3 -5 6 6 6 11 1 17 -2
13 -5z m0 -40 c-3 -3 -12 -4 -19 -1 -8 3 -5 6 6 6 11 1 17 -2 13 -5z"/>
<path d="M1592 2650 c-7 -11 -21 -20 -32 -20 -25 0 -29 -47 -4 -52 13 -2 12
-7 -6 -26 -17 -18 -19 -26 -10 -37 9 -11 9 -15 1 -15 -6 0 -11 -9 -11 -20 0
-17 7 -20 50 -20 49 0 50 -1 50 -30 0 -26 4 -30 28 -30 26 0 28 3 24 30 l-4
30 56 0 c51 0 56 2 56 23 0 21 -4 22 -55 19 -35 -3 -55 0 -55 7 0 6 19 11 45
11 38 0 45 3 45 20 0 17 -7 20 -45 20 -45 0 -60 12 -29 24 9 4 22 1 30 -5 9
-7 19 -7 34 1 21 11 20 12 -10 51 -18 21 -34 39 -36 39 -16 0 -44 -22 -39 -31
4 -5 -4 -9 -16 -9 -17 0 -19 3 -10 13 6 8 8 17 4 20 -13 14 -49 6 -61 -13z
m38 -140 c0 -5 -12 -10 -26 -10 -14 0 -23 4 -19 10 3 6 15 10 26 10 10 0 19
-4 19 -10z"/>
<path d="M1840 2650 c0 -13 -7 -20 -20 -20 -19 0 -20 -7 -20 -105 0 -98 1
-105 20 -105 11 0 20 5 20 10 0 19 59 11 70 -10 10 -19 12 -19 42 -4 29 15 34
15 65 0 31 -15 34 -15 40 2 3 9 8 20 10 24 2 5 -7 13 -20 19 l-25 11 20 34
c23 39 18 64 -12 64 -11 0 -20 7 -20 16 0 11 8 15 28 12 22 -2 28 1 30 20 3
19 -1 22 -27 22 -21 0 -31 5 -31 15 0 9 -9 15 -25 15 -15 0 -25 -6 -25 -14 0
-7 -14 -16 -31 -20 -46 -9 -49 -8 -49 14 0 13 -7 20 -20 20 -13 0 -20 -7 -20
-20z m120 -65 c0 -8 -9 -15 -20 -15 -20 0 -26 11 -13 23 12 13 33 7 33 -8z
m40 -59 c0 -3 -4 -8 -10 -11 -5 -3 -10 -1 -10 4 0 6 5 11 10 11 6 0 10 -2 10
-4z m-56 -57 c-11 -18 -24 -8 -24 19 1 26 1 26 15 8 8 -10 12 -23 9 -27z"/>
<path d="M2430 2650 c-10 -18 -9 -24 1 -31 10 -6 8 -9 -8 -9 -18 0 -23 -7 -28
-37 -3 -21 -8 -48 -11 -60 -3 -16 0 -23 11 -23 9 0 15 -9 15 -24 0 -36 26 -56
71 -56 59 0 103 22 119 59 12 29 11 35 -7 59 -18 24 -27 27 -82 27 -60 0 -61
0 -61 28 0 22 4 27 18 23 57 -17 75 -18 83 -5 16 26 9 37 -35 48 -24 6 -50 13
-59 17 -10 3 -20 -3 -27 -16z m114 -155 c-2 -19 -50 -34 -88 -28 l-37 6 28 19
c29 19 99 22 97 3z"/>
<path d="M3000 2643 c-14 -14 -40 -32 -58 -40 -28 -11 -31 -16 -22 -33 9 -17
22 -19 121 -19 61 1 113 -2 116 -5 4 -3 -46 -6 -110 -6 -116 0 -117 0 -117
-23 0 -20 4 -23 30 -19 17 2 30 0 30 -5 0 -15 -23 -33 -42 -33 -18 0 -23 -16
-13 -42 5 -11 22 -12 91 -6 56 6 91 5 98 -2 9 -7 18 -5 31 4 18 13 18 15 -8
50 l-28 36 30 0 c29 0 31 3 29 33 -1 17 2 39 6 47 5 12 -3 19 -28 28 -19 7
-45 24 -58 37 -30 32 -67 31 -98 -2z m70 -38 c11 -13 8 -15 -20 -15 -28 0 -31
2 -20 15 7 8 16 15 20 15 4 0 13 -7 20 -15z m6 -125 c0 -14 -7 -20 -23 -20
-21 0 -22 3 -13 20 6 11 16 20 23 20 7 0 13 -9 13 -20z"/>
<path d="M3210 2650 c0 -17 7 -20 40 -20 33 0 40 3 40 20 0 17 -7 20 -40 20
-33 0 -40 -3 -40 -20z"/>
<path d="M2120 2627 c0 -26 2 -28 34 -21 31 5 34 4 29 -14 -3 -13 -16 -23 -33
-27 -49 -11 -78 -62 -61 -108 21 -54 81 -46 107 14 17 38 36 49 49 29 8 -13
-13 -40 -38 -49 -16 -6 -16 -8 7 -30 l24 -22 35 35 c23 22 42 34 51 30 11 -4
19 2 25 17 7 19 5 27 -11 40 -16 12 -20 24 -16 53 4 34 2 36 -24 36 -24 0 -28
-4 -28 -29 0 -24 -3 -28 -21 -24 -12 4 -18 11 -15 20 26 66 16 78 -61 78 -51
0 -53 -1 -53 -28z m34 -132 c-4 -8 -10 -15 -15 -15 -4 0 -6 7 -3 15 4 8 10 15
15 15 4 0 6 -7 3 -15z"/>
<path d="M2653 2559 c6 -97 27 -134 73 -134 24 0 32 7 48 38 17 36 17 39 1 58
-25 26 -32 24 -40 -12 -11 -50 -25 -15 -25 64 l0 67 -31 0 -32 0 6 -81z"/>
<path d="M2803 2622 c-9 -6 -6 -20 12 -57 14 -26 25 -61 25 -76 0 -32 12 -43
40 -34 28 9 26 50 -7 116 -28 53 -46 67 -70 51z"/>
<path d="M3620 2223 c-14 -9 -26 -17 -28 -19 -2 -1 4 -13 13 -27 14 -22 14
-25 1 -30 -9 -4 -19 1 -25 10 -7 14 -13 15 -40 3 -35 -14 -35 -14 -21 -41 8
-15 7 -19 -5 -19 -8 0 -15 -4 -15 -9 0 -5 -13 -12 -30 -16 -41 -9 -44 -18 -21
-70 11 -25 18 -52 15 -60 -11 -29 -32 -14 -54 38 -12 28 -24 53 -25 55 -4 5
-65 -27 -65 -34 0 -3 7 -19 16 -37 l16 -32 -21 22 c-29 30 -62 37 -105 23 -44
-14 -66 -44 -66 -88 0 -77 57 -124 124 -102 42 14 76 53 76 87 l0 25 18 -23
c22 -26 73 -30 99 -7 10 8 29 18 43 22 51 12 52 18 20 85 -17 35 -29 66 -25
69 3 3 5 0 5 -7 0 -8 5 -9 17 -2 15 8 22 1 43 -37 33 -61 53 -63 134 -15 l64
39 -24 39 c-27 45 -31 85 -10 85 8 0 26 -21 42 -47 15 -27 28 -49 30 -51 4 -6
64 28 63 36 0 4 -17 34 -38 67 -47 75 -77 89 -123 55 -30 -22 -32 -22 -45 -5
-7 11 -13 22 -13 27 0 12 -13 10 -40 -9z m70 -73 c4 0 12 11 18 25 14 31 57
43 80 22 9 -9 28 -36 42 -62 21 -39 23 -47 10 -55 -11 -7 -21 2 -43 41 -29 49
-51 61 -75 37 -18 -18 -15 -49 9 -87 13 -22 17 -37 11 -43 -16 -16 -25 -5 -76
82 -39 67 -45 84 -35 96 10 13 15 10 33 -20 11 -20 23 -36 26 -36z m-116 -16
c4 -10 14 -14 26 -11 22 6 29 -18 8 -26 -10 -3 -7 -16 10 -51 18 -38 26 -46
41 -41 29 9 35 -13 7 -26 -35 -16 -53 -6 -78 46 -17 34 -27 45 -40 42 -24 -7
-33 9 -12 21 13 7 14 13 5 30 -8 15 -8 22 2 25 20 9 25 8 31 -9z m102 -76 c9
-18 13 -30 9 -26 -5 4 -14 3 -21 -3 -10 -8 -17 -3 -28 20 -20 38 -20 41 4 41
12 0 26 -12 36 -32z m-163 -64 c22 -51 26 -69 17 -78 -9 -8 -14 -8 -17 2 -7
19 -19 14 -31 -12 -13 -29 -59 -43 -79 -23 -20 19 -63 114 -55 121 15 16 31 2
51 -44 24 -57 50 -66 76 -26 14 21 14 27 -4 69 -19 43 -17 53 9 56 3 0 18 -29
33 -65z m-198 -49 c65 -64 -9 -174 -91 -136 -33 15 -57 72 -45 105 22 57 94
74 136 31z"/>
<path d="M3222 1928 c-31 -31 0 -98 45 -98 42 0 54 57 21 97 -13 16 -50 17
-66 1z m64 -34 c7 -29 -2 -44 -26 -44 -19 0 -30 19 -30 50 0 37 46 32 56 -6z"/>
<path d="M1238 2108 c-29 -57 -54 -106 -56 -109 -5 -11 124 -79 148 -79 12 0
37 15 56 34 27 27 34 42 34 74 0 33 -6 45 -31 66 -17 14 -37 26 -45 26 -18 0
-18 10 1 37 15 21 14 23 -14 38 -17 8 -32 15 -35 15 -3 0 -29 -46 -58 -102z
m92 63 c-1 -3 -7 -17 -15 -31 -20 -35 -19 -40 14 -40 71 0 98 -78 46 -134 -32
-34 -69 -34 -104 2 -15 15 -35 26 -44 24 -25 -5 -21 10 28 108 33 66 49 88 60
84 8 -4 15 -9 15 -13z"/>
<path d="M1282 2068 c-35 -44 -9 -107 40 -95 33 9 54 56 38 86 -12 24 -61 29
-78 9z m64 -22 c8 -21 -14 -56 -36 -56 -23 0 -36 36 -20 55 16 19 49 19 56 1z"/>
<path d="M1440 1972 c0 -49 -3 -92 -6 -95 -4 -3 -15 -2 -25 3 -14 8 -21 5 -33
-12 -21 -30 -20 -33 9 -46 54 -25 76 -16 169 70 l89 82 -37 17 -38 17 -31 -35
-32 -34 0 47 c0 44 -2 48 -32 61 l-33 13 0 -88z m48 -12 l3 -65 38 44 c29 34
42 43 56 37 16 -6 9 -16 -46 -72 -78 -80 -90 -87 -123 -74 -36 13 -32 28 7 32
l32 3 -1 83 c-1 71 1 82 15 80 12 -3 17 -18 19 -68z"/>
<path d="M1694 1878 c-12 -40 -25 -80 -29 -89 -5 -12 2 -19 26 -28 44 -15 49
-14 49 9 0 11 7 37 15 56 14 34 17 36 48 30 29 -5 35 -3 46 18 17 31 7 46 -28
46 -16 0 -42 7 -57 15 -16 8 -34 15 -39 15 -6 0 -20 -33 -31 -72z m66 26 c0
-11 5 -12 18 -5 25 13 62 3 55 -15 -3 -8 -14 -11 -32 -8 -35 7 -57 -13 -71
-65 -8 -31 -14 -38 -28 -34 -18 4 -17 8 5 78 18 55 28 72 39 68 8 -3 14 -12
14 -19z"/>
<path d="M3093 1929 c-30 -9 -33 -13 -33 -49 0 -48 -12 -51 -37 -9 -15 26 -22
30 -47 25 -16 -3 -32 -6 -37 -6 -17 0 -9 -15 46 -84 54 -68 60 -86 26 -86 -14
0 -17 -6 -13 -30 5 -35 26 -39 72 -15 32 17 34 22 50 140 6 44 13 90 16 103 5
24 4 24 -43 11z m17 -36 c0 -10 -5 -56 -12 -101 -9 -69 -15 -86 -35 -99 -13
-9 -30 -12 -40 -8 -16 6 -16 8 4 17 36 17 32 40 -20 105 -40 52 -46 64 -32 69
10 4 22 -1 32 -15 8 -12 25 -34 37 -48 l23 -27 7 62 c5 44 11 62 21 62 8 0 15
-8 15 -17z"/>
<path d="M2045 1806 l-20 -124 29 -6 c44 -9 46 -8 46 22 l0 27 19 -32 c22 -35
39 -43 97 -41 23 0 50 -3 61 -6 19 -6 21 -1 26 70 8 86 -1 110 -41 121 -52 13
-92 8 -115 -16 -19 -19 -20 -24 -7 -34 13 -10 12 -15 -7 -34 -28 -27 -28 -22
-8 87 7 41 12 76 12 76 -1 1 -18 4 -37 8 l-35 6 -20 -124z m57 99 c12 -5 11
-22 -3 -108 -10 -56 -18 -103 -18 -104 -1 -2 -8 -3 -17 -3 -14 0 -16 8 -10 48
10 75 28 172 31 172 2 0 10 -2 17 -5z m176 -99 c11 -11 13 -29 7 -80 -6 -62
-16 -79 -30 -56 -3 5 -25 7 -49 4 -32 -5 -46 -2 -59 11 -39 38 -7 75 64 75 37
0 49 4 49 15 0 23 -46 41 -64 26 -11 -9 -20 -10 -33 -2 -17 9 -16 11 7 20 31
13 89 6 108 -13z m-51 -22 c-3 -3 -12 -4 -19 -1 -8 3 -5 6 6 6 11 1 17 -2 13
-5z"/>
<path d="M2174 1725 c-8 -21 4 -35 30 -35 25 0 46 17 46 37 0 19 -69 17 -76
-2z m56 -5 c0 -5 -10 -10 -22 -10 -19 0 -20 2 -8 10 19 13 30 13 30 0z"/>
<path d="M2783 1923 c-18 -4 -21 -9 -16 -37 5 -31 4 -33 -20 -29 -38 7 -85
-22 -96 -60 -5 -17 -10 -24 -10 -15 -2 28 -50 58 -93 58 -28 0 -46 -7 -63 -25
-23 -22 -25 -23 -25 -5 0 14 -7 20 -21 20 -16 0 -20 5 -16 20 4 17 0 20 -34
20 -32 0 -39 -3 -39 -20 0 -11 -7 -20 -15 -20 -10 0 -15 -10 -15 -30 0 -20 5
-30 15 -30 11 0 15 -13 15 -53 0 -29 5 -58 12 -65 7 -7 31 -12 55 -12 40 0 43
2 43 28 1 23 2 25 13 11 17 -23 52 -39 82 -39 46 0 100 40 90 68 -8 23 12 12
23 -13 13 -28 49 -40 90 -31 15 3 45 9 67 12 22 3 41 6 42 7 1 1 -5 45 -13 97
-7 52 -14 107 -14 123 0 28 -6 30 -57 20z m47 -100 c6 -49 14 -96 16 -106 6
-19 -27 -38 -34 -19 -3 9 -10 8 -25 -3 -12 -8 -36 -15 -54 -15 -40 0 -64 32
-66 86 -2 58 53 91 104 63 19 -10 21 -8 19 28 -3 51 -2 53 14 53 10 0 17 -25
26 -87z m-424 12 c-5 -20 -3 -25 14 -25 11 0 20 -7 20 -15 0 -10 -7 -15 -17
-13 -15 2 -19 -6 -21 -45 -3 -42 0 -49 17 -54 23 -6 29 -33 9 -33 -51 1 -58
10 -58 76 0 57 -2 64 -20 64 -11 0 -20 5 -20 10 0 6 9 10 20 10 15 0 20 7 20
25 0 19 5 25 21 25 18 0 20 -4 15 -25z m190 -23 c13 -8 34 -46 34 -60 0 -5
-27 -12 -60 -16 -62 -7 -75 -21 -44 -47 12 -10 22 -10 48 -1 49 18 65 15 37
-8 -30 -25 -82 -26 -112 -1 -30 24 -33 89 -5 120 19 21 79 29 102 13z m-139
-80 c4 -27 1 -32 -16 -32 -17 0 -21 6 -21 36 0 28 4 35 17 32 10 -2 18 -15 20
-36z m118 -22 c-3 -5 -12 -10 -20 -10 -8 0 -17 5 -20 10 -4 6 5 10 20 10 15 0
24 -4 20 -10z"/>
<path d="M2722 1804 c-28 -19 -29 -57 -2 -84 24 -24 29 -24 58 -4 14 10 22 26
22 44 0 25 -29 60 -50 60 -3 0 -16 -7 -28 -16z m42 -10 c21 -8 21 -63 1 -70
-8 -4 -22 -1 -30 6 -18 15 -20 56 -2 63 6 3 13 6 14 6 1 1 8 -2 17 -5z"/>
<path d="M2522 1788 c-21 -21 -15 -41 11 -34 12 3 32 6 45 6 20 0 21 3 12 20
-12 22 -49 27 -68 8z m41 -15 c-7 -2 -19 -2 -25 0 -7 3 -2 5 12 5 14 0 19 -2
13 -5z"/>
<path d="M1873 1875 c-33 -23 -49 -86 -33 -126 14 -33 59 -59 104 -59 29 0 68
30 74 56 15 69 13 81 -13 112 -22 27 -34 32 -69 32 -23 0 -51 -7 -63 -15z m86
-6 c35 -13 51 -35 51 -75 0 -23 -3 -25 -22 -20 -13 3 -42 9 -65 12 -36 6 -43
4 -43 -9 0 -25 45 -50 67 -39 26 13 47 4 32 -14 -19 -23 -77 -17 -104 11 -35
34 -33 78 4 116 33 33 36 33 80 18z m-19 -109 c0 -13 -11 -13 -30 0 -12 8 -11
10 8 10 12 0 22 -4 22 -10z"/>
<path d="M1901 1836 c-14 -17 -8 -22 42 -31 28 -6 37 -4 37 7 0 35 -56 52 -79
24z"/>
</g>
</svg>
